<svg xmlns="http://www.w3.org/2000/svg" viewBox="0 0 44 44" width="44" height="44">
  <!-- gun body -->
  <rect x="14" y="0" width="30" height="44" rx="3" fill="#b0b090" stroke="#3a7a3a" stroke-width="1.5"/>
  <rect x="17" y="3" width="24" height="10" rx="1" fill="#888868"/>
  <rect x="17" y="15" width="24" height="10" rx="1" fill="#888868"/>
  <rect x="17" y="27" width="24" height="10" rx="1" fill="#888868"/>
  <rect x="20" y="5" width="7" height="6" rx="1" fill="#5a5a3a"/>
  <rect x="29" y="5" width="7" height="6" rx="1" fill="#3a7a3a"/>
  <rect x="20" y="17" width="7" height="6" rx="1" fill="#3a7a3a"/>
  <rect x="29" y="17" width="7" height="6" rx="1" fill="#5a5a3a"/>
  <!-- barrel pointing left -->
  <rect x="0" y="12" width="16" height="8" rx="1" fill="#7a7a5a" stroke="#3a7a3a" stroke-width="1"/>
  <rect x="0" y="22" width="16" height="8" rx="1" fill="#7a7a5a" stroke="#3a7a3a" stroke-width="1"/>
  <rect x="0" y="14" width="8" height="4" fill="#4a4a3a"/>
  <rect x="0" y="24" width="8" height="4" fill="#4a4a3a"/>
</svg>
