<svg xmlns="http://www.w3.org/2000/svg" viewBox="0 0 200 160" width="200" height="160">
  <!-- main hull -->
  <rect x="0" y="20" width="200" height="120" rx="4" fill="#b0b090" stroke="#3a7a3a" stroke-width="2"/>
  <!-- nose cone (left) -->
  <polygon points="0,50 -30,65 -30,95 0,110" fill="#a8a888" stroke="#3a7a3a" stroke-width="1.5"/>
  <!-- engine block (right) -->
  <rect x="155" y="15" width="45" height="130" rx="3" fill="#b8b89a" stroke="#3a7a3a" stroke-width="2"/>
  <rect x="160" y="20" width="35" height="28" rx="2" fill="#989878" stroke="#4a4a2a" stroke-width="1"/>
  <rect x="163" y="23" width="10" height="7" rx="1" fill="#5a5a3a"/>
  <rect x="175" y="23" width="10" height="7" rx="1" fill="#5a5a3a"/>
  <rect x="163" y="32" width="10" height="7" rx="1" fill="#3a6a3a"/>
  <rect x="175" y="32" width="10" height="7" rx="1" fill="#3a6a3a"/>
  <rect x="160" y="52" width="35" height="28" rx="2" fill="#989878" stroke="#4a4a2a" stroke-width="1"/>
  <rect x="163" y="55" width="10" height="7" rx="1" fill="#5a5a3a"/>
  <rect x="175" y="55" width="10" height="7" rx="1" fill="#5a5a3a"/>
  <rect x="163" y="64" width="10" height="7" rx="1" fill="#3a6a3a"/>
  <rect x="175" y="64" width="10" height="7" rx="1" fill="#3a6a3a"/>
  <rect x="160" y="84" width="35" height="28" rx="2" fill="#989878" stroke="#4a4a2a" stroke-width="1"/>
  <rect x="163" y="87" width="10" height="7" rx="1" fill="#5a5a3a"/>
  <rect x="175" y="87" width="10" height="7" rx="1" fill="#5a5a3a"/>
  <rect x="163" y="96" width="10" height="7" rx="1" fill="#3a6a3a"/>
  <rect x="175" y="96" width="10" height="7" rx="1" fill="#3a6a3a"/>
  <rect x="160" y="116" width="35" height="24" rx="2" fill="#989878" stroke="#4a4a2a" stroke-width="1"/>
  <rect x="163" y="119" width="29" height="18" rx="1" fill="#6a6a4a"/>
  <!-- center command section -->
  <rect x="80" y="25" width="72" height="110" rx="3" fill="#c8c8a8" stroke="#2a6a2a" stroke-width="2"/>
  <rect x="86" y="31" width="60" height="48" rx="2" fill="#aaaa88" stroke="#3a7a3a" stroke-width="1"/>
  <circle cx="116" cy="55" r="14" fill="#1a3a1a" stroke="#3aaa3a" stroke-width="2"/>
  <circle cx="116" cy="55" r="7" fill="#2aff2a" opacity="0.8"/>
  <circle cx="116" cy="55" r="3" fill="#aaffaa"/>
  <rect x="86" y="82" width="60" height="48" rx="2" fill="#aaaa88" stroke="#3a7a3a" stroke-width="1"/>
  <rect x="92" y="87" width="18" height="38" rx="1" fill="#888868"/>
  <rect x="113" y="87" width="10" height="38" rx="1" fill="#6a6a4a"/>
  <rect x="126" y="87" width="14" height="38" rx="1" fill="#888868"/>
  <!-- forward section -->
  <rect x="5" y="25" width="72" height="110" rx="3" fill="#b8b89a" stroke="#2a5a2a" stroke-width="1.5"/>
  <rect x="10" y="30" width="30" height="48" rx="2" fill="#989878"/>
  <rect x="13" y="34" width="8" height="6" rx="1" fill="#5a5a3a"/>
  <rect x="23" y="34" width="8" height="6" rx="1" fill="#5a5a3a"/>
  <rect x="13" y="42" width="8" height="6" rx="1" fill="#5a5a3a"/>
  <rect x="23" y="42" width="8" height="6" rx="1" fill="#5a5a3a"/>
  <rect x="13" y="50" width="8" height="6" rx="1" fill="#3a6a3a"/>
  <rect x="23" y="50" width="8" height="6" rx="1" fill="#3a6a3a"/>
  <rect x="13" y="58" width="8" height="6" rx="1" fill="#3a6a3a"/>
  <rect x="23" y="58" width="8" height="6" rx="1" fill="#3a6a3a"/>
  <rect x="44" y="30" width="28" height="48" rx="2" fill="#888868"/>
  <rect x="47" y="34" width="22" height="10" rx="1" fill="#5a5a3a"/>
  <rect x="47" y="46" width="22" height="10" rx="1" fill="#5a5a3a"/>
  <rect x="47" y="58" width="22" height="10" rx="1" fill="#3a6a3a"/>
  <rect x="10" y="82" width="62" height="48" rx="2" fill="#989878"/>
  <rect x="14" y="86" width="54" height="20" rx="1" fill="#6a6a4a"/>
  <rect x="14" y="108" width="54" height="16" rx="1" fill="#5a5a3a"/>
  <!-- green trim lines -->
  <rect x="0" y="20" width="4" height="120" fill="#4aaa4a"/>
  <rect x="196" y="15" width="4" height="130" fill="#4aaa4a"/>
  <rect x="0" y="20" width="200" height="4" fill="#3a7a3a"/>
  <rect x="0" y="136" width="200" height="4" fill="#3a7a3a"/>
  <rect x="78" y="15" width="4" height="130" fill="#3a7a3a"/>
  <rect x="152" y="15" width="4" height="130" fill="#3a7a3a"/>
  <!-- top/bottom accent nubs -->
  <rect x="170" y="0" width="20" height="8" rx="2" fill="#3a7a3a"/>
  <rect x="170" y="152" width="20" height="8" rx="2" fill="#3a7a3a"/>
  <!-- exhaust vents -->
  <rect x="40" y="0" width="8" height="20" rx="2" fill="#888868" stroke="#4a4a2a" stroke-width="1"/>
  <rect x="55" y="0" width="8" height="20" rx="2" fill="#888868" stroke="#4a4a2a" stroke-width="1"/>
  <rect x="40" y="140" width="8" height="20" rx="2" fill="#888868" stroke="#4a4a2a" stroke-width="1"/>
  <rect x="55" y="140" width="8" height="20" rx="2" fill="#888868" stroke="#4a4a2a" stroke-width="1"/>
</svg>
